STARTFONT 2.1
COMMENT Recovered from ar1.1:TR8B 1 (Xerox Alto CONVERT font source (AL) recovered from MIT CADR AR1 ARC!!!)
FONT MIT-CADR-TR8B-AL-AR1
SIZE 11 72 72
FONTBOUNDINGBOX 13 11 0 -4
STARTPROPERTIES 2
FONT_ASCENT 7
FONT_DESCENT 4
ENDPROPERTIES
CHARS 128
STARTCHAR C0000
ENCODING -1 0
SWIDTH 0 0
DWIDTH 0 0
BBX 0 11 0 -4
BITMAP
00
00
00
00
00
00
00
00
00
00
00
ENDCHAR
STARTCHAR C0001
ENCODING -1 1
SWIDTH 0 0
DWIDTH 0 0
BBX 0 11 0 -4
BITMAP
00
00
00
00
00
00
00
00
00
00
00
ENDCHAR
STARTCHAR C0002
ENCODING -1 2
SWIDTH 0 0
DWIDTH 0 0
BBX 0 11 0 -4
BITMAP
00
00
00
00
00
00
00
00
00
00
00
ENDCHAR
STARTCHAR C0003
ENCODING -1 3
SWIDTH 0 0
DWIDTH 0 0
BBX 0 11 0 -4
BITMAP
00
00
00
00
00
00
00
00
00
00
00
ENDCHAR
STARTCHAR C0004
ENCODING -1 4
SWIDTH 0 0
DWIDTH 0 0
BBX 0 11 0 -4
BITMAP
00
00
00
00
00
00
00
00
00
00
00
ENDCHAR
STARTCHAR C0005
ENCODING -1 5
SWIDTH 0 0
DWIDTH 0 0
BBX 0 11 0 -4
BITMAP
00
00
00
00
00
00
00
00
00
00
00
ENDCHAR
STARTCHAR C0006
ENCODING -1 6
SWIDTH 0 0
DWIDTH 0 0
BBX 0 11 0 -4
BITMAP
00
00
00
00
00
00
00
00
00
00
00
ENDCHAR
STARTCHAR C0007
ENCODING -1 7
SWIDTH 0 0
DWIDTH 0 0
BBX 0 11 0 -4
BITMAP
00
00
00
00
00
00
00
00
00
00
00
ENDCHAR
STARTCHAR C0008
ENCODING -1 8
SWIDTH 0 0
DWIDTH 0 0
BBX 0 11 0 -4
BITMAP
00
00
00
00
00
00
00
00
00
00
00
ENDCHAR
STARTCHAR C0009
ENCODING -1 9
SWIDTH 0 0
DWIDTH 0 0
BBX 0 11 0 -4
BITMAP
00
00
00
00
00
00
00
00
00
00
00
ENDCHAR
STARTCHAR C000A
ENCODING -1 10
SWIDTH 0 0
DWIDTH 0 0
BBX 0 11 0 -4
BITMAP
00
00
00
00
00
00
00
00
00
00
00
ENDCHAR
STARTCHAR C000B
ENCODING -1 11
SWIDTH 0 0
DWIDTH 0 0
BBX 0 11 0 -4
BITMAP
00
00
00
00
00
00
00
00
00
00
00
ENDCHAR
STARTCHAR C000C
ENCODING -1 12
SWIDTH 0 0
DWIDTH 0 0
BBX 0 11 0 -4
BITMAP
00
00
00
00
00
00
00
00
00
00
00
ENDCHAR
STARTCHAR C000D
ENCODING -1 13
SWIDTH 0 0
DWIDTH 0 0
BBX 0 11 0 -4
BITMAP
00
00
00
00
00
00
00
00
00
00
00
ENDCHAR
STARTCHAR C000E
ENCODING -1 14
SWIDTH 0 0
DWIDTH 0 0
BBX 0 11 0 -4
BITMAP
00
00
00
00
00
00
00
00
00
00
00
ENDCHAR
STARTCHAR C000F
ENCODING -1 15
SWIDTH 0 0
DWIDTH 0 0
BBX 0 11 0 -4
BITMAP
00
00
00
00
00
00
00
00
00
00
00
ENDCHAR
STARTCHAR C0010
ENCODING -1 16
SWIDTH 0 0
DWIDTH 0 0
BBX 0 11 0 -4
BITMAP
00
00
00
00
00
00
00
00
00
00
00
ENDCHAR
STARTCHAR C0011
ENCODING -1 17
SWIDTH 0 0
DWIDTH 0 0
BBX 0 11 0 -4
BITMAP
00
00
00
00
00
00
00
00
00
00
00
ENDCHAR
STARTCHAR C0012
ENCODING -1 18
SWIDTH 0 0
DWIDTH 0 0
BBX 0 11 0 -4
BITMAP
00
00
00
00
00
00
00
00
00
00
00
ENDCHAR
STARTCHAR C0013
ENCODING -1 19
SWIDTH 0 0
DWIDTH 0 0
BBX 0 11 0 -4
BITMAP
00
00
00
00
00
00
00
00
00
00
00
ENDCHAR
STARTCHAR C0014
ENCODING -1 20
SWIDTH 0 0
DWIDTH 0 0
BBX 0 11 0 -4
BITMAP
00
00
00
00
00
00
00
00
00
00
00
ENDCHAR
STARTCHAR C0015
ENCODING -1 21
SWIDTH 0 0
DWIDTH 0 0
BBX 0 11 0 -4
BITMAP
00
00
00
00
00
00
00
00
00
00
00
ENDCHAR
STARTCHAR C0016
ENCODING -1 22
SWIDTH 0 0
DWIDTH 0 0
BBX 0 11 0 -4
BITMAP
00
00
00
00
00
00
00
00
00
00
00
ENDCHAR
STARTCHAR C0017
ENCODING -1 23
SWIDTH 0 0
DWIDTH 0 0
BBX 0 11 0 -4
BITMAP
00
00
00
00
00
00
00
00
00
00
00
ENDCHAR
STARTCHAR C0018
ENCODING -1 24
SWIDTH 0 0
DWIDTH 0 0
BBX 13 11 0 -4
BITMAP
0000
0000
0000
0000
0000
0000
0000
0000
0000
0000
FFF8
ENDCHAR
STARTCHAR C0019
ENCODING -1 25
SWIDTH 0 0
DWIDTH 0 0
BBX 0 11 0 -4
BITMAP
00
00
00
00
00
00
00
00
00
00
00
ENDCHAR
STARTCHAR C001A
ENCODING -1 26
SWIDTH 0 0
DWIDTH 0 0
BBX 0 11 0 -4
BITMAP
00
00
00
00
00
00
00
00
00
00
00
ENDCHAR
STARTCHAR C001B
ENCODING -1 27
SWIDTH 0 0
DWIDTH 0 0
BBX 0 11 0 -4
BITMAP
00
00
00
00
00
00
00
00
00
00
00
ENDCHAR
STARTCHAR C001C
ENCODING -1 28
SWIDTH 0 0
DWIDTH 0 0
BBX 0 11 0 -4
BITMAP
00
00
00
00
00
00
00
00
00
00
00
ENDCHAR
STARTCHAR C001D
ENCODING -1 29
SWIDTH 0 0
DWIDTH 0 0
BBX 0 11 0 -4
BITMAP
00
00
00
00
00
00
00
00
00
00
00
ENDCHAR
STARTCHAR C001E
ENCODING -1 30
SWIDTH 0 0
DWIDTH 0 0
BBX 0 11 0 -4
BITMAP
00
00
00
00
00
00
00
00
00
00
00
ENDCHAR
STARTCHAR C001F
ENCODING -1 31
SWIDTH 0 0
DWIDTH 0 0
BBX 0 11 0 -4
BITMAP
00
00
00
00
00
00
00
00
00
00
00
ENDCHAR
STARTCHAR C0020
ENCODING -1 32
SWIDTH 364 0
DWIDTH 4 0
BBX 4 11 0 -4
BITMAP
00
00
00
00
00
00
00
00
00
00
00
ENDCHAR
STARTCHAR C0021
ENCODING -1 33
SWIDTH 364 0
DWIDTH 4 0
BBX 4 11 0 -4
BITMAP
00
60
60
60
60
00
60
60
00
00
00
ENDCHAR
STARTCHAR C0022
ENCODING -1 34
SWIDTH 636 0
DWIDTH 7 0
BBX 7 11 0 -4
BITMAP
00
6C
6C
6C
00
00
00
00
00
00
00
ENDCHAR
STARTCHAR C0023
ENCODING -1 35
SWIDTH 909 0
DWIDTH 10 0
BBX 10 11 0 -4
BITMAP
0000
0900
0900
3F80
1200
7F00
2400
2400
0000
0000
0000
ENDCHAR
STARTCHAR C0024
ENCODING -1 36
SWIDTH 818 0
DWIDTH 9 0
BBX 9 11 0 -4
BITMAP
0800
3E00
6B00
7800
3E00
0F00
6B00
3E00
0800
0000
0000
ENDCHAR
STARTCHAR C0025
ENCODING -1 37
SWIDTH 1000 0
DWIDTH 11 0
BBX 11 11 0 -4
BITMAP
0000
3E00
5200
5400
64C0
0540
0940
0980
0000
0000
0000
ENDCHAR
STARTCHAR C0026
ENCODING -1 38
SWIDTH 909 0
DWIDTH 10 0
BBX 10 11 0 -4
BITMAP
0000
0C00
1200
1C00
3980
6D00
6600
3B80
0000
0000
0000
ENDCHAR
STARTCHAR C0027
ENCODING -1 39
SWIDTH 364 0
DWIDTH 4 0
BBX 4 11 0 -4
BITMAP
00
60
60
60
00
00
00
00
00
00
00
ENDCHAR
STARTCHAR C0028
ENCODING -1 40
SWIDTH 545 0
DWIDTH 6 0
BBX 6 11 0 -4
BITMAP
00
18
30
60
60
60
60
60
30
18
00
ENDCHAR
STARTCHAR C0029
ENCODING -1 41
SWIDTH 545 0
DWIDTH 6 0
BBX 6 11 0 -4
BITMAP
00
60
30
18
18
18
18
18
30
60
00
ENDCHAR
STARTCHAR C002A
ENCODING -1 42
SWIDTH 636 0
DWIDTH 7 0
BBX 7 11 0 -4
BITMAP
10
54
38
54
10
00
00
00
00
00
00
ENDCHAR
STARTCHAR C002B
ENCODING -1 43
SWIDTH 727 0
DWIDTH 8 0
BBX 8 11 0 -4
BITMAP
00
00
18
18
7E
7E
18
18
00
00
00
ENDCHAR
STARTCHAR C002C
ENCODING -1 44
SWIDTH 364 0
DWIDTH 4 0
BBX 4 11 0 -4
BITMAP
00
00
00
00
00
00
60
60
20
20
40
ENDCHAR
STARTCHAR C002D
ENCODING -1 45
SWIDTH 545 0
DWIDTH 6 0
BBX 6 11 0 -4
BITMAP
00
00
00
00
78
78
00
00
00
00
00
ENDCHAR
STARTCHAR C002E
ENCODING -1 46
SWIDTH 364 0
DWIDTH 4 0
BBX 4 11 0 -4
BITMAP
00
00
00
00
00
00
60
60
00
00
00
ENDCHAR
STARTCHAR C002F
ENCODING -1 47
SWIDTH 636 0
DWIDTH 7 0
BBX 7 11 0 -4
BITMAP
00
0C
0C
18
18
30
30
60
60
00
00
ENDCHAR
STARTCHAR C0030
ENCODING -1 48
SWIDTH 636 0
DWIDTH 7 0
BBX 7 11 0 -4
BITMAP
00
38
6C
6C
6C
6C
6C
38
00
00
00
ENDCHAR
STARTCHAR C0031
ENCODING -1 49
SWIDTH 636 0
DWIDTH 7 0
BBX 7 11 0 -4
BITMAP
00
08
38
18
18
18
18
3C
00
00
00
ENDCHAR
STARTCHAR C0032
ENCODING -1 50
SWIDTH 636 0
DWIDTH 7 0
BBX 7 11 0 -4
BITMAP
00
38
4C
0C
18
30
64
7C
00
00
00
ENDCHAR
STARTCHAR C0033
ENCODING -1 51
SWIDTH 636 0
DWIDTH 7 0
BBX 7 11 0 -4
BITMAP
00
38
4C
0C
18
0C
4C
78
00
00
00
ENDCHAR
STARTCHAR C0034
ENCODING -1 52
SWIDTH 636 0
DWIDTH 7 0
BBX 7 11 0 -4
BITMAP
00
0C
1C
2C
4C
7E
0C
0C
00
00
00
ENDCHAR
STARTCHAR C0035
ENCODING -1 53
SWIDTH 636 0
DWIDTH 7 0
BBX 7 11 0 -4
BITMAP
00
3C
30
78
4C
0C
4C
38
00
00
00
ENDCHAR
STARTCHAR C0036
ENCODING -1 54
SWIDTH 636 0
DWIDTH 7 0
BBX 7 11 0 -4
BITMAP
00
1C
30
78
6C
6C
6C
38
00
00
00
ENDCHAR
STARTCHAR C0037
ENCODING -1 55
SWIDTH 636 0
DWIDTH 7 0
BBX 7 11 0 -4
BITMAP
00
3C
7C
48
18
10
30
30
00
00
00
ENDCHAR
STARTCHAR C0038
ENCODING -1 56
SWIDTH 636 0
DWIDTH 7 0
BBX 7 11 0 -4
BITMAP
00
38
6C
6C
38
6C
6C
38
00
00
00
ENDCHAR
STARTCHAR C0039
ENCODING -1 57
SWIDTH 636 0
DWIDTH 7 0
BBX 7 11 0 -4
BITMAP
00
38
6C
6C
6C
3C
18
70
00
00
00
ENDCHAR
STARTCHAR C003A
ENCODING -1 58
SWIDTH 364 0
DWIDTH 4 0
BBX 4 11 0 -4
BITMAP
00
00
00
60
60
00
60
60
00
00
00
ENDCHAR
STARTCHAR C003B
ENCODING -1 59
SWIDTH 364 0
DWIDTH 4 0
BBX 4 11 0 -4
BITMAP
00
00
00
60
60
00
60
60
20
20
40
ENDCHAR
STARTCHAR C003C
ENCODING -1 60
SWIDTH 636 0
DWIDTH 7 0
BBX 7 11 0 -4
BITMAP
00
0C
18
30
60
30
18
0C
00
00
00
ENDCHAR
STARTCHAR C003D
ENCODING -1 61
SWIDTH 545 0
DWIDTH 6 0
BBX 6 11 0 -4
BITMAP
00
00
00
78
78
00
78
78
00
00
00
ENDCHAR
STARTCHAR C003E
ENCODING -1 62
SWIDTH 636 0
DWIDTH 7 0
BBX 7 11 0 -4
BITMAP
00
60
30
18
0C
18
30
60
00
00
00
ENDCHAR
STARTCHAR C003F
ENCODING -1 63
SWIDTH 636 0
DWIDTH 7 0
BBX 7 11 0 -4
BITMAP
00
78
4C
18
30
00
30
30
00
00
00
ENDCHAR
STARTCHAR C0040
ENCODING -1 64
SWIDTH 909 0
DWIDTH 10 0
BBX 10 11 0 -4
BITMAP
0000
1E00
2100
4C80
5280
5280
4D00
2000
1F00
0000
0000
ENDCHAR
STARTCHAR C0041
ENCODING -1 65
SWIDTH 818 0
DWIDTH 9 0
BBX 9 11 0 -4
BITMAP
0000
1800
1800
3C00
2C00
7E00
4600
EF00
0000
0000
0000
ENDCHAR
STARTCHAR C0042
ENCODING -1 66
SWIDTH 727 0
DWIDTH 8 0
BBX 8 11 0 -4
BITMAP
00
FC
66
66
7C
66
66
FC
00
00
00
ENDCHAR
STARTCHAR C0043
ENCODING -1 67
SWIDTH 727 0
DWIDTH 8 0
BBX 8 11 0 -4
BITMAP
00
3E
62
C0
C0
C0
62
3C
00
00
00
ENDCHAR
STARTCHAR C0044
ENCODING -1 68
SWIDTH 727 0
DWIDTH 8 0
BBX 8 11 0 -4
BITMAP
00
FC
66
66
66
66
66
FC
00
00
00
ENDCHAR
STARTCHAR C0045
ENCODING -1 69
SWIDTH 727 0
DWIDTH 8 0
BBX 8 11 0 -4
BITMAP
00
FE
62
68
78
68
62
FE
00
00
00
ENDCHAR
STARTCHAR C0046
ENCODING -1 70
SWIDTH 727 0
DWIDTH 8 0
BBX 8 11 0 -4
BITMAP
00
FE
62
68
78
68
60
F0
00
00
00
ENDCHAR
STARTCHAR C0047
ENCODING -1 71
SWIDTH 727 0
DWIDTH 8 0
BBX 8 11 0 -4
BITMAP
00
3E
62
C0
CF
C6
66
3C
00
00
00
ENDCHAR
STARTCHAR C0048
ENCODING -1 72
SWIDTH 909 0
DWIDTH 10 0
BBX 10 11 0 -4
BITMAP
0000
F780
6300
6300
7F00
6300
6300
F780
0000
0000
0000
ENDCHAR
STARTCHAR C0049
ENCODING -1 73
SWIDTH 455 0
DWIDTH 5 0
BBX 5 11 0 -4
BITMAP
00
F0
60
60
60
60
60
F0
00
00
00
ENDCHAR
STARTCHAR C004A
ENCODING -1 74
SWIDTH 545 0
DWIDTH 6 0
BBX 6 11 0 -4
BITMAP
00
78
30
30
30
30
B0
E0
00
00
00
ENDCHAR
STARTCHAR C004B
ENCODING -1 75
SWIDTH 818 0
DWIDTH 9 0
BBX 9 11 0 -4
BITMAP
0000
EE00
6C00
7800
7800
6C00
6600
E700
0000
0000
0000
ENDCHAR
STARTCHAR C004C
ENCODING -1 76
SWIDTH 727 0
DWIDTH 8 0
BBX 8 11 0 -4
BITMAP
00
F0
60
60
60
62
62
FE
00
00
00
ENDCHAR
STARTCHAR C004D
ENCODING -1 77
SWIDTH 1091 0
DWIDTH 12 0
BBX 12 11 0 -4
BITMAP
0000
F1E0
71C0
5BC0
5AC0
5EC0
4CC0
EDE0
0000
0000
0000
ENDCHAR
STARTCHAR C004E
ENCODING -1 78
SWIDTH 818 0
DWIDTH 9 0
BBX 9 11 0 -4
BITMAP
0000
E700
7200
7200
5A00
5A00
4E00
EE00
0000
0000
0000
ENDCHAR
STARTCHAR C004F
ENCODING -1 79
SWIDTH 818 0
DWIDTH 9 0
BBX 9 11 0 -4
BITMAP
0000
3C00
6600
C300
C300
C300
6600
3C00
0000
0000
0000
ENDCHAR
STARTCHAR C0050
ENCODING -1 80
SWIDTH 727 0
DWIDTH 8 0
BBX 8 11 0 -4
BITMAP
00
FC
66
66
7C
60
60
F0
00
00
00
ENDCHAR
STARTCHAR C0051
ENCODING -1 81
SWIDTH 818 0
DWIDTH 9 0
BBX 9 11 0 -4
BITMAP
0000
3C00
6600
C300
C300
C300
6600
3C00
1800
0E00
0000
ENDCHAR
STARTCHAR C0052
ENCODING -1 82
SWIDTH 818 0
DWIDTH 9 0
BBX 9 11 0 -4
BITMAP
0000
FC00
6600
6600
7C00
6600
6600
F300
0000
0000
0000
ENDCHAR
STARTCHAR C0053
ENCODING -1 83
SWIDTH 545 0
DWIDTH 6 0
BBX 6 11 0 -4
BITMAP
00
78
C8
E0
70
38
98
F0
00
00
00
ENDCHAR
STARTCHAR C0054
ENCODING -1 84
SWIDTH 818 0
DWIDTH 9 0
BBX 9 11 0 -4
BITMAP
0000
FF00
9900
1800
1800
1800
1800
3C00
0000
0000
0000
ENDCHAR
STARTCHAR C0055
ENCODING -1 85
SWIDTH 818 0
DWIDTH 9 0
BBX 9 11 0 -4
BITMAP
0000
F700
6200
6200
6200
6200
6200
3C00
0000
0000
0000
ENDCHAR
STARTCHAR C0056
ENCODING -1 86
SWIDTH 818 0
DWIDTH 9 0
BBX 9 11 0 -4
BITMAP
0000
F700
6200
6200
3400
3400
1800
1800
0000
0000
0000
ENDCHAR
STARTCHAR C0057
ENCODING -1 87
SWIDTH 1182 0
DWIDTH 13 0
BBX 13 11 0 -4
BITMAP
0000
F770
6220
7760
3740
3DC0
1980
1980
0000
0000
0000
ENDCHAR
STARTCHAR C0058
ENCODING -1 88
SWIDTH 818 0
DWIDTH 9 0
BBX 9 11 0 -4
BITMAP
0000
F600
6400
3800
1800
3C00
4600
EF00
0000
0000
0000
ENDCHAR
STARTCHAR C0059
ENCODING -1 89
SWIDTH 818 0
DWIDTH 9 0
BBX 9 11 0 -4
BITMAP
0000
F700
6200
3400
3C00
1800
1800
3C00
0000
0000
0000
ENDCHAR
STARTCHAR C005A
ENCODING -1 90
SWIDTH 636 0
DWIDTH 7 0
BBX 7 11 0 -4
BITMAP
00
FC
8C
18
30
60
C4
FC
00
00
00
ENDCHAR
STARTCHAR C005B
ENCODING -1 91
SWIDTH 545 0
DWIDTH 6 0
BBX 6 11 0 -4
BITMAP
00
78
60
60
60
60
60
60
60
78
00
ENDCHAR
STARTCHAR C005C
ENCODING -1 92
SWIDTH 636 0
DWIDTH 7 0
BBX 7 11 0 -4
BITMAP
00
60
60
30
30
18
18
0C
0C
00
00
ENDCHAR
STARTCHAR C005D
ENCODING -1 93
SWIDTH 545 0
DWIDTH 6 0
BBX 6 11 0 -4
BITMAP
00
78
18
18
18
18
18
18
18
78
00
ENDCHAR
STARTCHAR C005E
ENCODING -1 94
SWIDTH 727 0
DWIDTH 8 0
BBX 8 11 0 -4
BITMAP
00
00
18
3C
5A
18
18
18
00
00
00
ENDCHAR
STARTCHAR C005F
ENCODING -1 95
SWIDTH 727 0
DWIDTH 8 0
BBX 8 11 0 -4
BITMAP
00
00
10
20
7E
7E
20
10
00
00
00
ENDCHAR
STARTCHAR C0060
ENCODING -1 96
SWIDTH 0 0
DWIDTH 0 0
BBX 0 11 0 -4
BITMAP
00
00
00
00
00
00
00
00
00
00
00
ENDCHAR
STARTCHAR C0061
ENCODING -1 97
SWIDTH 636 0
DWIDTH 7 0
BBX 7 11 0 -4
BITMAP
00
00
00
70
18
78
D8
7C
00
00
00
ENDCHAR
STARTCHAR C0062
ENCODING -1 98
SWIDTH 636 0
DWIDTH 7 0
BBX 7 11 0 -4
BITMAP
00
E0
60
78
6C
6C
6C
F8
00
00
00
ENDCHAR
STARTCHAR C0063
ENCODING -1 99
SWIDTH 545 0
DWIDTH 6 0
BBX 6 11 0 -4
BITMAP
00
00
00
78
C8
C0
C8
70
00
00
00
ENDCHAR
STARTCHAR C0064
ENCODING -1 100
SWIDTH 636 0
DWIDTH 7 0
BBX 7 11 0 -4
BITMAP
00
38
18
78
D8
D8
D8
7C
00
00
00
ENDCHAR
STARTCHAR C0065
ENCODING -1 101
SWIDTH 545 0
DWIDTH 6 0
BBX 6 11 0 -4
BITMAP
00
00
00
70
D8
F8
C0
78
00
00
00
ENDCHAR
STARTCHAR C0066
ENCODING -1 102
SWIDTH 545 0
DWIDTH 6 0
BBX 6 11 0 -4
BITMAP
00
38
60
F8
60
60
60
F0
00
00
00
ENDCHAR
STARTCHAR C0067
ENCODING -1 103
SWIDTH 636 0
DWIDTH 7 0
BBX 7 11 0 -4
BITMAP
00
00
00
74
D8
D8
70
CC
CC
78
00
ENDCHAR
STARTCHAR C0068
ENCODING -1 104
SWIDTH 727 0
DWIDTH 8 0
BBX 8 11 0 -4
BITMAP
00
E0
60
78
6C
6C
6C
EE
00
00
00
ENDCHAR
STARTCHAR C0069
ENCODING -1 105
SWIDTH 455 0
DWIDTH 5 0
BBX 5 11 0 -4
BITMAP
60
60
00
E0
60
60
60
F0
00
00
00
ENDCHAR
STARTCHAR C006A
ENCODING -1 106
SWIDTH 455 0
DWIDTH 5 0
BBX 5 11 0 -4
BITMAP
30
30
00
70
30
30
30
30
B0
E0
00
ENDCHAR
STARTCHAR C006B
ENCODING -1 107
SWIDTH 727 0
DWIDTH 8 0
BBX 8 11 0 -4
BITMAP
00
E0
60
66
6C
78
6C
EE
00
00
00
ENDCHAR
STARTCHAR C006C
ENCODING -1 108
SWIDTH 455 0
DWIDTH 5 0
BBX 5 11 0 -4
BITMAP
00
E0
60
60
60
60
60
F0
00
00
00
ENDCHAR
STARTCHAR C006D
ENCODING -1 109
SWIDTH 1000 0
DWIDTH 11 0
BBX 11 11 0 -4
BITMAP
0000
0000
0000
FF00
6D80
6D80
6D80
EDC0
0000
0000
0000
ENDCHAR
STARTCHAR C006E
ENCODING -1 110
SWIDTH 727 0
DWIDTH 8 0
BBX 8 11 0 -4
BITMAP
00
00
00
F8
6C
6C
6C
EE
00
00
00
ENDCHAR
STARTCHAR C006F
ENCODING -1 111
SWIDTH 545 0
DWIDTH 6 0
BBX 6 11 0 -4
BITMAP
00
00
00
70
D8
D8
D8
70
00
00
00
ENDCHAR
STARTCHAR C0070
ENCODING -1 112
SWIDTH 636 0
DWIDTH 7 0
BBX 7 11 0 -4
BITMAP
00
00
00
F8
6C
6C
6C
78
60
F0
00
ENDCHAR
STARTCHAR C0071
ENCODING -1 113
SWIDTH 636 0
DWIDTH 7 0
BBX 7 11 0 -4
BITMAP
00
00
00
78
D8
D8
D8
78
18
3C
00
ENDCHAR
STARTCHAR C0072
ENCODING -1 114
SWIDTH 636 0
DWIDTH 7 0
BBX 7 11 0 -4
BITMAP
00
00
00
FC
6C
60
60
F0
00
00
00
ENDCHAR
STARTCHAR C0073
ENCODING -1 115
SWIDTH 455 0
DWIDTH 5 0
BBX 5 11 0 -4
BITMAP
00
00
00
F0
C0
60
30
F0
00
00
00
ENDCHAR
STARTCHAR C0074
ENCODING -1 116
SWIDTH 545 0
DWIDTH 6 0
BBX 6 11 0 -4
BITMAP
00
20
60
F0
60
60
68
38
00
00
00
ENDCHAR
STARTCHAR C0075
ENCODING -1 117
SWIDTH 727 0
DWIDTH 8 0
BBX 8 11 0 -4
BITMAP
00
00
00
EC
6C
6C
6C
7E
00
00
00
ENDCHAR
STARTCHAR C0076
ENCODING -1 118
SWIDTH 636 0
DWIDTH 7 0
BBX 7 11 0 -4
BITMAP
00
00
00
EC
68
68
30
30
00
00
00
ENDCHAR
STARTCHAR C0077
ENCODING -1 119
SWIDTH 909 0
DWIDTH 10 0
BBX 10 11 0 -4
BITMAP
0000
0000
0000
ED80
6D00
6D00
3E00
3600
0000
0000
0000
ENDCHAR
STARTCHAR C0078
ENCODING -1 120
SWIDTH 636 0
DWIDTH 7 0
BBX 7 11 0 -4
BITMAP
00
00
00
EC
68
30
58
DC
00
00
00
ENDCHAR
STARTCHAR C0079
ENCODING -1 121
SWIDTH 727 0
DWIDTH 8 0
BBX 8 11 0 -4
BITMAP
00
00
00
E6
64
34
38
18
58
70
00
ENDCHAR
STARTCHAR C007A
ENCODING -1 122
SWIDTH 545 0
DWIDTH 6 0
BBX 6 11 0 -4
BITMAP
00
00
00
F8
30
60
C8
F8
00
00
00
ENDCHAR
STARTCHAR C007B
ENCODING -1 123
SWIDTH 636 0
DWIDTH 7 0
BBX 7 11 0 -4
BITMAP
00
1C
30
30
30
60
30
30
30
1C
00
ENDCHAR
STARTCHAR C007C
ENCODING -1 124
SWIDTH 364 0
DWIDTH 4 0
BBX 4 11 0 -4
BITMAP
00
60
60
60
60
60
60
60
60
60
00
ENDCHAR
STARTCHAR C007D
ENCODING -1 125
SWIDTH 636 0
DWIDTH 7 0
BBX 7 11 0 -4
BITMAP
00
70
18
18
18
0C
18
18
18
70
00
ENDCHAR
STARTCHAR C007E
ENCODING -1 126
SWIDTH 818 0
DWIDTH 9 0
BBX 9 11 0 -4
BITMAP
0000
0000
0000
0000
3B00
6E00
0000
0000
0000
0000
0000
ENDCHAR
STARTCHAR C007F
ENCODING -1 127
SWIDTH 0 0
DWIDTH 0 0
BBX 0 11 0 -4
BITMAP
00
00
00
00
00
00
00
00
00
00
00
ENDCHAR
ENDFONT
